<svg xmlns="http://www.w3.org/2000/svg" width="43.005" height="66" viewBox="0 0 43.005 66"><defs><style>.a{fill:#005570;}</style></defs><g transform="translate(-15.997 -5)"><path class="a" d="M58.82,67.57l-7.9-19.88H56.8a1.5,1.5,0,1,0,0-3H49.73L43.46,28.91A9.91,9.91,0,0,0,39,11.33V6.5a1.5,1.5,0,0,0-3,0v4.83a9.91,9.91,0,0,0-4.48,17.58L25.27,44.69H18.2a1.5,1.5,0,1,0,0,3h5.88l-7.9,19.88a2.5,2.5,0,0,0,1.37,3.25,2.55,2.55,0,0,0,.92.18,2.48,2.48,0,0,0,2.3-1.57l8.64-21.74H36v2.47a1.5,1.5,0,0,0,3,0V47.69h6.61l8.64,21.74A2.48,2.48,0,0,0,56.53,71a2.55,2.55,0,0,0,.92-.18A2.5,2.5,0,0,0,58.82,67.57ZM37.5,16.2a4.9,4.9,0,1,1-4.81,4.89A4.9,4.9,0,0,1,37.5,16.2ZM39,44.69V42.23a1.5,1.5,0,0,0-3,0v2.46H30.6l5.49-13.82a8.34,8.34,0,0,0,2.82,0L44.4,44.69Z"/></g></svg>