<svg xmlns="http://www.w3.org/2000/svg" width="83.195" height="61.127" viewBox="0 0 83.195 61.127"><defs><style>.a{fill:#005570;}</style></defs><g transform="translate(-2.5 -15.1)"><g transform="translate(2.5 15.1)"><path class="a" d="M82.98,70.8H7.93V17.815a2.715,2.715,0,0,0-5.43,0v55.7a2.728,2.728,0,0,0,2.715,2.715H82.98a2.715,2.715,0,0,0,0-5.43Z" transform="translate(-2.5 -15.1)"/><path class="a" d="M26.233,64.582a8.82,8.82,0,0,0,8.845-8.845,9.109,9.109,0,0,0-1.4-4.817l5.43-6.656a9.687,9.687,0,0,0,3.24.613,9.179,9.179,0,0,0,3.153-.613l5.43,6.656a9.109,9.109,0,0,0-1.4,4.817,8.845,8.845,0,0,0,17.69,0,9.109,9.109,0,0,0-1.4-4.817l5.43-6.656a9.687,9.687,0,0,0,3.24.613,8.82,8.82,0,0,0,8.845-8.845A9.028,9.028,0,0,0,74.4,27.1a8.82,8.82,0,0,0-8.845,8.845,9.109,9.109,0,0,0,1.4,4.817l-5.43,6.656a9.687,9.687,0,0,0-3.24-.613,9.179,9.179,0,0,0-3.153.613L49.7,40.762a9.109,9.109,0,0,0,1.4-4.817,8.845,8.845,0,0,0-17.69,0,9.109,9.109,0,0,0,1.4,4.817l-5.43,6.656a9.687,9.687,0,0,0-3.24-.613A8.82,8.82,0,0,0,17.3,55.649,8.97,8.97,0,0,0,26.233,64.582ZM74.4,32.53a3.42,3.42,0,0,1,3.415,3.415A3.365,3.365,0,0,1,74.4,39.36a3.42,3.42,0,0,1-3.415-3.415A3.365,3.365,0,0,1,74.4,32.53Zm-16.114,19.7A3.42,3.42,0,0,1,61.7,55.649a3.415,3.415,0,1,1-6.831,0A3.42,3.42,0,0,1,58.285,52.234ZM42.259,32.53a3.42,3.42,0,0,1,3.415,3.415,3.415,3.415,0,1,1-3.415-3.415Zm-16.026,19.7a3.42,3.42,0,0,1,3.415,3.415,3.415,3.415,0,1,1-3.415-3.415Z" transform="translate(-4.339 -16.591)"/></g></g></svg>