<svg xmlns="http://www.w3.org/2000/svg" width="61.329" height="70.215" viewBox="0 0 61.329 70.215"><defs><style>.a{fill:#005570;}</style></defs><g transform="translate(-5 -1)"><g transform="translate(5 1)"><g transform="translate(2.711 7.46)"><path class="a" d="M48.206,59.584a48.6,48.6,0,0,0,3.84-14.153A65.371,65.371,0,0,0,57.2,39.4,26.638,26.638,0,0,1,61.261,49.49a5.9,5.9,0,0,1,2.3.549c-.329-3.84-1.975-8.119-4.937-12.617,5.486-8.338,6.583-15.908,2.853-20.516-2.743-3.511-7.79-4.718-14.262-3.62A24.564,24.564,0,0,0,43.159,7.8a13.077,13.077,0,0,1-.878,2.194,20.533,20.533,0,0,1,2.743,3.73,46.025,46.025,0,0,0-9.435,3.62h0a43.743,43.743,0,0,0-9.435-3.62A20.534,20.534,0,0,1,28.9,9.994,5.44,5.44,0,0,1,28.019,7.8a21.608,21.608,0,0,0-4.059,5.486c-6.473-1.1-11.52.219-14.262,3.62-3.73,4.608-2.743,12.288,2.743,20.626C9.478,42.03,7.832,46.309,7.5,50.149a7.106,7.106,0,0,1,2.3-.549,24.372,24.372,0,0,1,4.059-10.093,51.922,51.922,0,0,0,5.156,6.034,48.6,48.6,0,0,0,3.84,14.153,24.789,24.789,0,0,1-4.827.219A7.277,7.277,0,0,1,17.048,62a21.306,21.306,0,0,0,2.633.219,20.235,20.235,0,0,0,4.279-.439c2.962,5.6,7.131,8.777,11.52,8.777s8.557-3.182,11.739-8.887A30.384,30.384,0,0,0,51.5,62a9.836,9.836,0,0,0,2.633-.219,7.276,7.276,0,0,1-.987-2.085A15.039,15.039,0,0,1,48.206,59.584Zm-2.3-.329A40.125,40.125,0,0,1,37.783,56.4a56.49,56.49,0,0,0,8.228-5.486A27.939,27.939,0,0,0,49.3,48.064,38.178,38.178,0,0,1,45.9,59.255ZM52.375,41.92c.11-1.426.11-2.962.11-4.388s0-2.962-.11-4.388c1.317,1.426,2.414,2.962,3.511,4.388C54.788,38.958,53.582,40.494,52.375,41.92Zm7.241-23.588c2.853,3.62,1.975,10.2-2.523,17.225a43.068,43.068,0,0,0-5.156-6.034A48.6,48.6,0,0,0,48.1,15.37C53.472,14.6,57.531,15.59,59.616,18.332ZM45.9,15.809A40.606,40.606,0,0,1,49.413,27c-1.1-.987-2.194-1.975-3.291-2.852a56.49,56.49,0,0,0-8.228-5.486A37.136,37.136,0,0,1,45.9,15.809ZM44.695,25.9q2.8,2.3,5.266,4.608h0c.219,2.3.439,4.608.439,7.022a49.258,49.258,0,0,1-.439,7.022,52.772,52.772,0,0,1-5.266,4.608A60.4,60.4,0,0,1,35.479,55.2a60.4,60.4,0,0,1-9.216-6.034C24.4,47.735,22.643,46.089,21,44.553c-.219-2.3-.439-4.608-.439-6.912A49.257,49.257,0,0,1,21,30.62h0a52.772,52.772,0,0,1,5.266-4.608,60.4,60.4,0,0,1,9.216-6.034A46.831,46.831,0,0,1,44.695,25.9ZM33.066,18.661a56.49,56.49,0,0,0-8.228,5.486A40.886,40.886,0,0,0,21.546,27a44.718,44.718,0,0,1,3.4-11.191A35.961,35.961,0,0,1,33.066,18.661Zm-21.833-.329c2.085-2.743,6.144-3.73,11.41-2.962A48.811,48.811,0,0,0,18.8,29.413h0a51.921,51.921,0,0,0-5.156,6.034C9.368,28.426,8.38,21.953,11.233,18.332Zm3.84,19.2a43.932,43.932,0,0,1,3.511-4.388c-.11,1.426-.11,2.962-.11,4.388s.11,2.962.11,4.388C17.267,40.494,16.17,38.958,15.073,37.532Zm6.473,10.423c1.1.987,2.194,1.975,3.291,2.852a56.49,56.49,0,0,0,8.228,5.486,35.961,35.961,0,0,1-8.119,2.852A44.718,44.718,0,0,1,21.546,47.954ZM35.479,68.361c-3.4,0-6.692-2.523-9.435-7.131a46.025,46.025,0,0,0,9.435-3.62,46.025,46.025,0,0,0,9.435,3.62C42.172,65.837,38.88,68.361,35.479,68.361Z" transform="translate(-7.471 -7.8)"/></g><g transform="translate(19.529 26.002)"><path class="a" d="M25.323,42.912l7.57-7.57V24.7A11.207,11.207,0,0,0,22.8,35.891,10.6,10.6,0,0,0,25.323,42.912Z" transform="translate(-22.8 -24.7)"/></g><g transform="translate(23.698 38.289)"><path class="a" d="M33.622,45.993A11.294,11.294,0,0,0,44.812,35.9H34.17L26.6,43.47A10.968,10.968,0,0,0,33.622,45.993Z" transform="translate(-26.6 -35.9)"/></g><g transform="translate(31.816 26.002)"><path class="a" d="M34,24.7V34.793H44.093A11.328,11.328,0,0,0,34,24.7Z" transform="translate(-34 -24.7)"/></g><g transform="translate(25.124)"><path class="a" d="M33.5,12.3a5.736,5.736,0,0,0,5.7-5.7,5.65,5.65,0,1,0-5.7,5.7Z" transform="translate(-27.9 -1)"/></g><g transform="translate(50.028 51.455)"><path class="a" d="M56.3,47.9a5.736,5.736,0,0,0-5.7,5.7,5.65,5.65,0,1,0,11.3,0A5.574,5.574,0,0,0,56.3,47.9Z" transform="translate(-50.6 -47.9)"/></g><g transform="translate(0 51.455)"><path class="a" d="M10.7,47.9A5.643,5.643,0,0,0,5,53.5a5.736,5.736,0,0,0,5.7,5.7,5.65,5.65,0,0,0,0-11.3Z" transform="translate(-5 -47.9)"/></g></g></g></svg>