<svg xmlns="http://www.w3.org/2000/svg" width="77.559" height="60.926" viewBox="0 0 77.559 60.926"><defs><style>.a{fill:#005570;}</style></defs><g transform="translate(-5.7 -15.2)"><path class="a" d="M72.929,25.442H60.061V20.89a5.679,5.679,0,0,0-5.69-5.69H35.988a5.679,5.679,0,0,0-5.69,5.69v4.552H16.029A10.349,10.349,0,0,0,5.7,35.771V65.8A10.349,10.349,0,0,0,16.029,76.126h56.9A10.349,10.349,0,0,0,83.259,65.8V35.771A10.349,10.349,0,0,0,72.929,25.442ZM34.675,20.89a1.346,1.346,0,0,1,1.313-1.313H54.371a1.346,1.346,0,0,1,1.313,1.313v4.552H34.675ZM78.006,65.8a5.081,5.081,0,0,1-5.077,5.077h-56.9A5.081,5.081,0,0,1,10.952,65.8V35.771a5.081,5.081,0,0,1,5.077-5.077h56.9a5.081,5.081,0,0,1,5.077,5.077Z" transform="translate(0 0)"/><path class="a" d="M57.891,37.857a2.16,2.16,0,0,0-2.976.788L38.457,66.657a2.16,2.16,0,0,0,.788,2.976,2.423,2.423,0,0,0,1.138.263,2.2,2.2,0,0,0,1.926-1.05L58.766,40.833A2.269,2.269,0,0,0,57.891,37.857Z" transform="translate(-4.045 -2.786)"/><path class="a" d="M32.97,37.413a2.115,2.115,0,0,0-3.064.088L15.813,52.119c0,.088-.088.088-.088.175l-.175.175c0,.088-.088.088-.088.175s-.088.088-.088.175a.306.306,0,0,1-.088.175c0,.088,0,.175-.088.175v.7c0,.088,0,.175.088.175,0,.088,0,.175.088.175,0,.088.088.088.088.175s.088.088.088.175.088.088.175.175c0,.088.088.088.088.175L29.906,69.714a2.192,2.192,0,0,0,1.576.7A2.05,2.05,0,0,0,32.97,69.8a2.2,2.2,0,0,0,.088-3.064L20.452,53.607,33.058,40.564A2.3,2.3,0,0,0,32.97,37.413Z" transform="translate(-1.184 -2.692)"/><path class="a" d="M81.908,54.662c0-.088.088-.088.088-.175s0-.088.088-.175a.306.306,0,0,1,.088-.175v-.7c0-.088,0-.175-.088-.175,0-.088,0-.175-.088-.175a.306.306,0,0,0-.088-.175c0-.088-.088-.088-.088-.175s-.088-.088-.175-.175c0-.088-.088-.088-.088-.175L67.464,37.5a2.167,2.167,0,1,0-3.151,2.976L76.918,53.612,64.313,66.655a2.115,2.115,0,0,0,.088,3.064,2.05,2.05,0,0,0,1.488.613,2.192,2.192,0,0,0,1.576-.7L81.558,55.013a.306.306,0,0,0,.088-.175l.175-.175C81.82,54.75,81.908,54.662,81.908,54.662Z" transform="translate(-7.228 -2.696)"/></g></svg>