<svg xmlns="http://www.w3.org/2000/svg" width="59.433" height="61.327" viewBox="0 0 59.433 61.327"><defs><style>.a{fill:#005570;}</style></defs><g transform="translate(-3 -1.5)"><path class="a" d="M60.533,62.827H30.881a1.97,1.97,0,0,1-1.96-1.96c.063-5.69.253-8.914,4.3-10.369A39.78,39.78,0,0,0,39.8,47.337l3.161,9.989.443,1.328,1.391-3.983c-3.224-4.552.316-4.8.885-4.8h0c.632,0,4.11.19.885,4.742l1.391,3.983.443-1.328,3.161-9.989a39.781,39.781,0,0,0,6.575,3.161c4.046,1.454,4.236,4.679,4.3,10.369A1.9,1.9,0,0,1,60.533,62.827ZM3,12.058v15.11a22.565,22.565,0,0,0,.506,4.362,19.559,19.559,0,0,0,5.437,9.42,37.73,37.73,0,0,0,13.846,8.6,3.681,3.681,0,0,0,1.2.19h0a3.593,3.593,0,0,0,1.517-.316l1.454-.632c1.2-.506,2.4-1.075,3.667-1.644a45.478,45.478,0,0,0,4.3-2.592c-.126-.316-.253-.7-.379-1.012a11.975,11.975,0,0,1-1.77-3.73,30.4,30.4,0,0,1-4.489,2.845c-1.138.569-2.213,1.012-3.351,1.517a6.38,6.38,0,0,0-.948.443V26.094H8.058V13.323c5.311-.569,10.432-2.592,16-6.322V26.094H34.675a13.4,13.4,0,0,1,1.707-2.15,17.613,17.613,0,0,1,2.655-2.213,11.385,11.385,0,0,1,2.908-1.454h0a11.36,11.36,0,0,1,2.845-.569h.316V12a3.416,3.416,0,0,0-3.161-3.541l-.822-.126A24.583,24.583,0,0,1,37.9,7.822a30.865,30.865,0,0,1-11.38-5.374A3.936,3.936,0,0,0,24.18,1.5a3.936,3.936,0,0,0-2.339.948C16.467,6.179,11.6,8.075,6.6,8.328,5.15,8.391,3,8.96,3,12.058ZM37.141,38.422c.569,1.96,1.075,2.529,1.454,2.592A8.4,8.4,0,0,0,43.779,47.4a5.585,5.585,0,0,0,3.793,0,8.665,8.665,0,0,0,5.184-6.386c.379,0,.885-.569,1.454-2.592.759-2.719-.063-3.1-.759-3.035a7.644,7.644,0,0,0,.316-1.138c1.138-7.018-2.276-7.271-2.276-7.271a5.651,5.651,0,0,0-2.086-1.96,6.942,6.942,0,0,0-4.236-.885,5.421,5.421,0,0,0-1.707.316h0a8.864,8.864,0,0,0-1.9.948,9.007,9.007,0,0,0-1.9,1.581,8.349,8.349,0,0,0-2.086,3.667,7.445,7.445,0,0,0,0,3.54h0a7.644,7.644,0,0,0,.316,1.138C37.2,35.324,36.382,35.7,37.141,38.422Z"/></g></svg>