<svg xmlns="http://www.w3.org/2000/svg" width="65.185" height="66.3" viewBox="0 0 65.185 66.3"><defs><style>.a{fill:#005570;}</style></defs><g transform="translate(-12 -11.1)"><g transform="translate(12 11.1)"><g transform="translate(0 7.119)"><path class="a" d="M77.185,19.4H12V64.858H38.589L25.466,75.922l2.23,2.659,16.21-13.637h1.458L61.489,78.581l2.23-2.659L50.6,64.858H77.185ZM73.754,61.427H15.431v-38.6H73.754Z" transform="translate(-12 -19.4)"/></g><g transform="translate(5.575)"><rect class="a" width="54.035" height="3.431"/></g><g transform="translate(10.464 16.897)"><path class="a" d="M34.664,49.5l4.717,4.717L50.96,42.55l4.2,4.2L65.284,36.632v9.006h3.431V30.8H53.791v3.431H62.8l-7.633,7.633-4.2-4.2L39.381,49.326l-4.717-4.632L24.2,55.244l2.4,2.4Z" transform="translate(-24.2 -30.8)"/></g></g></g></svg>